<svg width="85" height="35" viewBox="0 0 85 35" fill="none" xmlns="http://www.w3.org/2000/svg">
<g clip-path="url(#clip0_204_252)">
<path d="M0.0107422 0H84.9895V35H0.0107422V0Z" fill="black"/>
<path d="M17.5196 10.7215C18.3374 10.4838 19.2098 10.3571 20.1148 10.3571C24.0768 10.3571 27.3845 12.8094 28.1405 16.0695L33.7564 15.0715C32.4696 9.53335 26.8502 5.36389 20.1148 5.36389C18.57 5.36389 17.0907 5.5825 15.7021 5.98804L17.5196 10.7215Z" fill="#FFCB05"/>
<path d="M10.8935 26.5818L14.6919 22.8401C12.998 21.5316 11.9294 19.6211 11.9294 17.492C11.9294 15.3661 12.998 13.4556 14.6919 12.1503L10.8935 8.4054C8.01468 10.6295 6.19727 13.877 6.19727 17.492C6.19727 21.1102 8.01468 24.3577 10.8935 26.5818" fill="#00A4E0"/>
<path d="M28.1405 18.9242C27.3809 22.1812 24.0768 24.6303 20.1185 24.6303C19.2098 24.6303 18.3338 24.5035 17.5196 24.2627L15.7021 29.0025C17.0907 29.4049 18.5737 29.6235 20.1185 29.6235C26.8465 29.6235 32.4624 25.4604 33.7564 19.9285L28.1405 18.9242Z" fill="#EF4123"/>
<path d="M38.6672 22.9954C38.4818 22.7356 38.2346 22.3206 38.082 22.0132C37.1914 20.2136 37.1514 18.3507 37.9002 16.5638C38.7253 14.6026 40.3028 13.104 42.342 12.3373C44.9045 11.3773 47.7361 11.5642 50.1932 12.8347C51.7526 13.6141 52.8576 14.8181 53.6972 16.5226C53.8026 16.7412 53.8971 16.9725 53.9916 17.1721L38.6672 22.9954ZM43.785 15.2299C41.964 15.9111 41.0262 17.4002 41.2225 19.1428L48.9283 16.2501C47.6016 14.8941 45.8787 14.4442 43.785 15.2299V15.2299ZM49.8879 21.5221C49.8843 21.5221 49.8843 21.5253 49.8843 21.5253L49.7243 21.4303C49.2627 22.0798 48.5466 22.6089 47.6416 22.951C45.9187 23.6037 44.323 23.4358 43.1744 22.5582L43.0689 22.6976C43.0689 22.6976 43.069 22.6944 43.0653 22.6944L41.1098 25.2449C41.5968 25.5395 42.1166 25.7867 42.6619 25.9863C44.8209 26.7688 47.0309 26.7308 49.2082 25.9071C50.7821 25.3114 52.0179 24.4053 52.8612 23.2552L49.8879 21.5221ZM59.3457 8.58606V22.7609L61.8756 23.6544L60.4398 26.5756L57.6483 25.5617C57.0231 25.3241 56.5942 24.9629 56.2743 24.5542C55.9653 24.1391 55.7363 23.5657 55.7363 22.799V8.58606H59.3457ZM65.8957 19.1523C65.8957 17.9452 66.51 16.8616 67.4769 16.1266L64.8816 13.6046C63.1223 14.9606 62.0137 16.9408 62.0137 19.1459C62.0101 21.3542 63.1187 23.3376 64.8743 24.6936L67.466 22.1716C66.5027 21.4334 65.8957 20.3562 65.8957 19.1523V19.1523ZM70.5047 23.1728C69.9958 23.1728 69.5015 23.0968 69.0435 22.9637L67.804 26.1732C68.6509 26.4203 69.556 26.5565 70.501 26.5565C74.6084 26.5597 78.036 24.0188 78.8321 20.6445L75.0228 19.9665C74.5902 21.801 72.7328 23.176 70.5047 23.1728V23.1728ZM70.5156 11.748C69.5742 11.748 68.6691 11.8811 67.8222 12.125L69.0507 15.3377C69.5124 15.2046 70.0031 15.1317 70.5119 15.1317C72.7437 15.1349 74.6048 16.5163 75.0264 18.3539L78.8357 17.6822C78.0542 14.3016 74.6266 11.7512 70.5156 11.748V11.748Z" fill="white"/>
</g>
<defs>
<clipPath id="clip0_204_252">
<rect width="85" height="35" fill="white"/>
</clipPath>
</defs>
</svg>

